<svg width="900" height="600" viewBox="0 0 900 600" fill="none" xmlns="http://www.w3.org/2000/svg">
<g clip-path="url(#clip0_17_241)">
<path d="M900 0H0V600H900V0Z" fill="#D6F3FA"/>
<path d="M786 280.1L860.4 323.1V408.9L786 451.9L711.6 408.9V323.1L786 280.1Z" fill="#BFE8F4"/>
<path d="M150 96L210.6 131V201L150 236L89.3999 201V131L150 96Z" fill="#BFE8F4"/>
<path d="M37.4 -39L99.8 -3V69L37.4 105L-25 69V-3L37.4 -39Z" fill="#BFE8F4"/>
<path d="M739.4 196L775.8 217V259L739.4 280L703 259V217L739.4 196Z" fill="#BFE8F4"/>
<path d="M842 475L883 498.654V545.962L842 569.615L801 545.962V498.654L842 475Z" fill="#BFE8F4"/>
<path d="M762 -73L832.1 -32.5V48.5L762 89L691.9 48.5V-32.5L762 -73Z" fill="#BFE8F4"/>
<path d="M107.9 421L156.8 449.259V505.776L107.9 534.035L59 505.776V449.259L107.9 421Z" fill="#BFE8F4"/>
<path d="M234.5 260L296 295.5V366.5L234.5 402L173 366.5V295.5L234.5 260Z" fill="#BFE8F4"/>
<path d="M88.5 296.943L118 313.972V348.028L88.5 365.057L59 348.028V313.972L88.5 296.943Z" fill="#BFE8F4"/>
<path d="M282 500L317.5 520.5V561.5L282 582L246.5 561.5V520.5L282 500Z" fill="#BFE8F4"/>
<path d="M588 -9L624.4 12V54L588 75L551.6 54V12L588 -9Z" fill="#BFE8F4"/>
<path d="M659.2 486L722.4 522.5V595.5L659.2 632L596 595.5V522.5L659.2 486Z" fill="#BFE8F4"/>
<path d="M347.5 21L377 38.0285V72.0854L347.5 89.1138L318 72.0854V38.0285L347.5 21Z" fill="#BFE8F4"/>
</g>
<defs>
<clipPath id="clip0_17_241">
<rect width="900" height="600" fill="white"/>
</clipPath>
</defs>
</svg>
